<?xml version="1.0" encoding="UTF-8" standalone="no"?>
<svg
   inkscape:version="1.1.1 (3bf5ae0d25, 2021-09-20)"
   sodipodi:docname="exit.svg"
   id="svg29"
   style="shape-rendering:geometricPrecision; text-rendering:geometricPrecision; image-rendering:optimizeQuality; fill-rule:evenodd; clip-rule:evenodd"
   height="512"
   width="512"
   version="1.1"
   xmlns:inkscape="http://www.inkscape.org/namespaces/inkscape"
   xmlns:sodipodi="http://sodipodi.sourceforge.net/DTD/sodipodi-0.dtd"
   xmlns="http://www.w3.org/2000/svg"
   xmlns:svg="http://www.w3.org/2000/svg"
   xmlns:rdf="http://www.w3.org/1999/02/22-rdf-syntax-ns#"
   xmlns:cc="http://creativecommons.org/ns#"
   xmlns:dc="http://purl.org/dc/elements/1.1/">
  <metadata
     id="metadata33">
    <rdf:RDF>
      <cc:Work
         rdf:about="">
        <dc:format>image/svg+xml</dc:format>
        <dc:type
           rdf:resource="http://purl.org/dc/dcmitype/StillImage" />
      </cc:Work>
    </rdf:RDF>
  </metadata>
  <sodipodi:namedview
     inkscape:current-layer="Layer_x0020_1"
     inkscape:window-maximized="1"
     inkscape:window-y="0"
     inkscape:window-x="0"
     inkscape:cy="163.01564"
     inkscape:cx="63.512586"
     inkscape:zoom="1.1808683"
     showgrid="false"
     id="namedview31"
     inkscape:window-height="1137"
     inkscape:window-width="1920"
     inkscape:pageshadow="2"
     inkscape:pageopacity="0"
     guidetolerance="10"
     gridtolerance="10"
     objecttolerance="10"
     borderopacity="1"
     bordercolor="#666666"
     pagecolor="#ffffff"
     inkscape:pagecheckerboard="0" />
  <defs
     id="defs19">
    <style
       id="style2"
       type="text/css">
   <![CDATA[
    .str0 {stroke:#801A00;stroke-width:5}
    .fil2 {fill:url(#id0)}
    .fil0 {fill:url(#id1)}
    .fil1 {fill:url(#id2)}
   ]]>
  </style>
    <linearGradient
       y2="190.46"
       x2="250"
       y1="452.63"
       x1="250"
       gradientUnits="userSpaceOnUse"
       id="id0">
   <stop
   id="stop4"
   style="stop-color:#C82800"
   offset="0" />

   <stop
   id="stop6"
   style="stop-color:#FF3300"
   offset="1" />

  </linearGradient>
    <linearGradient
       y2="62.301"
       x2="249.999"
       y1="447.697"
       x1="249.999"
       gradientUnits="userSpaceOnUse"
       id="id1">
   <stop
   id="stop9"
   style="stop-color:#921D00"
   offset="0" />

   <stop
   id="stop11"
   style="stop-color:#FF3300"
   offset="1" />

  </linearGradient>
    <linearGradient
       y2="211.3"
       x2="249.998"
       y1="73.702"
       x1="249.998"
       gradientUnits="userSpaceOnUse"
       id="id2">
   <stop
   id="stop14"
   style="stop-color:#DB2C00"
   offset="0" />

   <stop
   id="stop16"
   style="stop-color:#FF6B46"
   offset="1" />

  </linearGradient>
  </defs>
  <g
     transform="matrix(0.12846019,0,0,0.12845982,-0.11502844,-0.11502235)"
     id="Layer_x0020_1"
     inkscape:label="Layer 1">
    <metadata
       id="CorelCorpID_0Corel-Layer" />
    <g
       id="g24"
       transform="matrix(8.333328,0,0,8.333328,-89.601279,-89.601189)">
      <polygon
         style="fill:url(#id1)"
         id="polygon22"
         points="130,480 20,370 140,250 20,130 130,20 250,140 370,20 480,130 360,250 480,370 370,480 250,360 "
         class="fil0 str0" />
      <polygon
         style="fill:url(#id2)"
         id="polygon24"
         points="458,130 338,250 162,250 42,130 130,42 250,162 370,42 "
         class="fil1" />
      <path
         style="fill:url(#id0)"
         id="path26"
         d="M 375,212 338,250 458,370 370,458 250,338 130,458 42,370 162,250 125,212 c 38,-17 80,-27 125,-27 45,0 87,10 125,27 z"
         class="fil2" />
    </g>
  </g>
</svg>
