<?xml version="1.0" encoding="UTF-8" standalone="no"?>
<svg
   id="svg4"
   sodipodi:docname="logo.svg"
   height="512"
   width="512"
   inkscape:version="1.2 (dc2aedaf03, 2022-05-15)"
   version="1.1"
   xmlns:inkscape="http://www.inkscape.org/namespaces/inkscape"
   xmlns:sodipodi="http://sodipodi.sourceforge.net/DTD/sodipodi-0.dtd"
   xmlns:xlink="http://www.w3.org/1999/xlink"
   xmlns="http://www.w3.org/2000/svg"
   xmlns:svg="http://www.w3.org/2000/svg">
  <defs
     id="defs8">
    <linearGradient
       inkscape:collect="always"
       id="linearGradient885">
      <stop
         style="stop-color:#4d4d4d;stop-opacity:1;"
         offset="0"
         id="stop881" />
      <stop
         style="stop-color:#ffffff;stop-opacity:0.2;"
         offset="1"
         id="stop883" />
    </linearGradient>
    <radialGradient
       inkscape:collect="always"
       xlink:href="#linearGradient885"
       id="radialGradient887"
       cx="256"
       cy="254.38789"
       fx="256"
       fy="254.38789"
       r="250"
       gradientTransform="matrix(1,0,0,0.87754959,0,31.149901)"
       gradientUnits="userSpaceOnUse" />
  </defs>
  <sodipodi:namedview
     id="namedview6"
     pagecolor="#ffffff"
     bordercolor="#666666"
     borderopacity="1.0"
     inkscape:pageshadow="2"
     inkscape:pageopacity="0.0"
     inkscape:pagecheckerboard="0"
     showgrid="false"
     inkscape:zoom="1.4142136"
     inkscape:cx="206.47518"
     inkscape:cy="251.37646"
     inkscape:window-width="1920"
     inkscape:window-height="1137"
     inkscape:window-x="0"
     inkscape:window-y="0"
     inkscape:window-maximized="1"
     inkscape:current-layer="svg4"
     inkscape:showpageshadow="2"
     inkscape:deskcolor="#d1d1d1" />
  <!-- Font Awesome Free 5.15.4 by @fontawesome - https://fontawesome.com License - https://fontawesome.com/license/free (Icons: CC BY 4.0, Fonts: SIL OFL 1.1, Code: MIT License) -->
  <path
     d="m 478.69455,248.83369 -92.48622,-34.6584 V 110.29585 c 0,-14.361216 -8.90395,-27.190562 -22.40349,-32.26486 L 268.06342,42.127958 c -7.75506,-2.967984 -16.37178,-2.967984 -24.22258,0 L 148.09942,78.03099 c -13.49954,5.074298 -22.4035,17.903644 -22.4035,32.26486 v 103.87944 l -92.486208,34.6584 C 19.805913,253.90798 10.90196,266.73733 10.90196,281.09855 v 105.4113 c 0,13.02084 7.37209,24.98851 19.052543,30.82874 l 95.741417,47.87071 c 9.66989,4.88281 21.15886,4.88281 30.82875,0 L 256,415.42376 355.47533,465.2093 c 9.66989,4.88281 21.15886,4.88281 30.82875,0 l 95.74142,-47.87071 c 11.68045,-5.84023 19.05254,-17.8079 19.05254,-30.82874 v -105.4113 c 0,-14.36122 -8.90395,-27.19057 -22.40349,-32.26486 z m -125.0383,-33.89246 -81.3802,30.54151 v -65.29565 l 81.3802,-35.42433 z M 158.34375,108.95547 256,72.382249 353.65625,108.95547 v 0.57442 L 256,149.16686 158.34375,109.52992 Z m 80.4228,278.70328 -81.38021,40.6901 v -75.73146 l 81.38021,-37.14767 z m 0,-107.23039 -97.65626,39.63694 -97.656247,-39.63694 v -0.57443 l 97.656247,-36.57324 97.65626,36.57322 z m 229.7794,107.23039 -81.3802,40.6901 v -75.73146 l 81.3802,-37.14767 z m 0,-107.23039 -97.65624,39.63694 -97.65626,-39.63694 v -0.57443 l 97.65626,-36.57324 97.65624,36.57322 z"
     id="path2"
     style="fill:url(#radialGradient887);stroke:#000000;stroke-width:9.80392;stroke-linecap:round;stroke-linejoin:round;stroke-dasharray:none;stroke-opacity:1;fill-opacity:1" />
</svg>
