<?xml version="1.0" encoding="UTF-8" standalone="no"?>
<svg
   id="svg4"
   sodipodi:docname="resources.svg"
   height="512"
   width="512"
   inkscape:version="1.1.1 (3bf5ae0d25, 2021-09-20)"
   version="1.1"
   xmlns:inkscape="http://www.inkscape.org/namespaces/inkscape"
   xmlns:sodipodi="http://sodipodi.sourceforge.net/DTD/sodipodi-0.dtd"
   xmlns="http://www.w3.org/2000/svg"
   xmlns:svg="http://www.w3.org/2000/svg">
  <defs
     id="defs8" />
  <sodipodi:namedview
     id="namedview6"
     pagecolor="#ffffff"
     bordercolor="#666666"
     borderopacity="1.0"
     inkscape:pageshadow="2"
     inkscape:pageopacity="0.0"
     inkscape:pagecheckerboard="0"
     showgrid="false"
     inkscape:zoom="1.4042969"
     inkscape:cx="317.59666"
     inkscape:cy="250.30319"
     inkscape:window-width="1920"
     inkscape:window-height="1137"
     inkscape:window-x="0"
     inkscape:window-y="0"
     inkscape:window-maximized="1"
     inkscape:current-layer="svg4" />
  <!-- Font Awesome Free 5.15.4 by @fontawesome - https://fontawesome.com License - https://fontawesome.com/license/free (Icons: CC BY 4.0, Fonts: SIL OFL 1.1, Code: MIT License) -->
  <path
     d="M 479.14844,253.11035 384.8125,217.75879 V 111.80176 c 0,-14.648443 -9.08203,-27.734376 -22.85156,-32.91016 L 264.30469,42.270507 c -7.91016,-3.027343 -16.69922,-3.027343 -24.70703,0 L 141.94141,78.8916 c -13.76953,5.175784 -22.85157,18.261717 -22.85157,32.91016 V 217.75879 L 24.753907,253.11035 C 11.082032,258.28613 2,271.37207 2,286.02051 v 107.51953 c 0,13.28125 7.5195317,25.48828 19.433594,31.44531 l 97.656246,48.82813 c 9.86329,4.98046 21.58204,4.98046 31.44532,0 L 252,423.03223 353.46484,473.81348 c 9.86328,4.98046 21.58203,4.98046 31.44532,0 l 97.65625,-48.82813 C 494.48047,419.02832 502,406.82129 502,393.54004 V 286.02051 c 0,-14.64844 -9.08203,-27.73438 -22.85156,-32.91016 z m -127.53907,-34.57031 -83.0078,31.15234 v -66.60156 l 83.0078,-36.13281 z M 152.39063,110.43457 252,73.129884 351.60937,110.43457 v 0.58591 L 252,151.45019 152.39063,111.02051 Z m 82.03125,284.27735 -83.00781,41.5039 v -77.24609 l 83.00781,-37.89063 z m 0,-109.375 L 134.8125,325.7666 35.203125,285.33692 V 284.751 l 99.609375,-37.30471 99.60938,37.30469 z m 234.37499,109.375 -83.0078,41.5039 v -77.24609 l 83.0078,-37.89063 z m 0,-109.375 -99.60937,40.42968 -99.60938,-40.42968 V 284.751 l 99.60938,-37.30471 99.60937,37.30469 z"
     id="path2"
     style="stroke-width:0.976567" />
</svg>
