<?xml version="1.0" encoding="UTF-8" standalone="no"?>
<svg
   inkscape:version="1.1.1 (3bf5ae0d25, 2021-09-20)"
   sodipodi:docname="setup.svg"
   width="512"
   id="Layer_1"
   height="512"
   contentStyleType="text/css"
   contentScriptType="text/ecmascript"
   version="1.1"
   xmlns:inkscape="http://www.inkscape.org/namespaces/inkscape"
   xmlns:sodipodi="http://sodipodi.sourceforge.net/DTD/sodipodi-0.dtd"
   xmlns="http://www.w3.org/2000/svg"
   xmlns:svg="http://www.w3.org/2000/svg"
   xmlns:rdf="http://www.w3.org/1999/02/22-rdf-syntax-ns#"
   xmlns:cc="http://creativecommons.org/ns#"
   xmlns:dc="http://purl.org/dc/elements/1.1/">
  <metadata
     id="metadata9">
    <rdf:RDF>
      <cc:Work
         rdf:about="">
        <dc:format>image/svg+xml</dc:format>
        <dc:type
           rdf:resource="http://purl.org/dc/dcmitype/StillImage" />
      </cc:Work>
    </rdf:RDF>
  </metadata>
  <defs
     id="defs7" />
  <sodipodi:namedview
     inkscape:document-rotation="0"
     inkscape:current-layer="Layer_1"
     inkscape:window-maximized="1"
     inkscape:window-y="0"
     inkscape:window-x="0"
     inkscape:cy="-96.262401"
     inkscape:cx="-143.43481"
     inkscape:zoom="1.3037281"
     showgrid="false"
     id="namedview5"
     inkscape:window-height="1137"
     inkscape:window-width="1920"
     inkscape:pageshadow="2"
     inkscape:pageopacity="0"
     guidetolerance="10"
     gridtolerance="10"
     objecttolerance="10"
     borderopacity="1"
     bordercolor="#666666"
     pagecolor="#ffffff"
     inkscape:pagecheckerboard="0" />
  <path
     style="fill:#000000;stroke-width:0.325521"
     inkscape:connector-curvature="0"
     id="path2"
     d="m 339.33333,256 c 0,-23.00358 -8.13802,-42.64323 -24.41406,-58.91927 C 298.64323,180.80468 279.00358,172.66667 256,172.66667 c -23.00358,0 -42.64323,8.13801 -58.91927,24.41406 -16.27605,16.27604 -24.41406,35.91569 -24.41406,58.91927 0,23.00358 8.13801,42.64323 24.41406,58.91927 16.27604,16.27604 35.91569,24.41406 58.91927,24.41406 23.00358,0 42.64323,-8.13802 58.91927,-24.41406 C 331.19531,298.64323 339.33333,279.00358 339.33333,256 Z M 506,220.51823 v 72.26562 c 0,2.60417 -0.86817,5.09994 -2.60417,7.48698 -1.736,2.38704 -3.90625,3.79785 -6.51041,4.23177 l -60.22136,9.11458 c -4.12337,11.71875 -8.35514,21.59278 -12.69531,29.6224 7.59537,10.85059 19.20573,25.82454 34.83073,44.92188 2.17025,2.60416 3.2552,5.31673 3.2552,8.13802 0,2.82129 -0.97656,5.31673 -2.92968,7.48698 -5.85938,8.02962 -16.60157,19.74837 -32.22657,35.15625 -15.625,15.40787 -25.82454,23.11197 -30.59895,23.11197 -2.60417,0 -5.42545,-0.97656 -8.46355,-2.92968 l -44.92187,-35.15625 c -9.5485,4.99121 -19.42285,9.11458 -29.62239,12.36979 -3.47234,29.514 -6.61882,49.69629 -9.44011,60.54688 -1.5192,6.0765 -5.42545,9.11458 -11.71875,9.11458 h -72.26563 c -3.03808,0 -5.6966,-0.9222 -7.97525,-2.76692 -2.27865,-1.84473 -3.52637,-4.17741 -3.7435,-6.99871 l -9.11458,-59.89583 c -10.63378,-3.47233 -20.39941,-7.48698 -29.29687,-12.04427 L 123.83854,459.125 c -2.17025,1.95312 -4.88281,2.92968 -8.13801,2.92968 -3.0381,0 -5.75099,-1.19368 -8.13803,-3.58072 -27.34375,-24.73959 -45.247396,-42.96875 -53.710938,-54.6875 -1.519205,-2.17025 -2.278645,-4.66569 -2.278645,-7.48698 0,-2.60417 0.868164,-5.09994 2.604166,-7.48698 3.255209,-4.55729 8.789063,-11.77311 16.601563,-21.64713 C 78.59115,357.29134 84.450525,349.6416 88.356775,344.21614 82.4974,333.36556 78.0485,322.62337 75.010417,311.98958 L 15.440104,303.20052 C 12.618815,302.7666 10.340169,301.41016 8.6041667,299.13151 6.8681642,296.85287 6,294.30306 6,291.48177 v -72.26563 c 0,-2.60416 0.8681642,-5.09993 2.6041667,-7.48697 1.7360023,-2.38705 3.7978513,-3.79785 6.1848963,-4.23178 l 60.546879,-9.11458 c 3.038083,-9.98274 7.26985,-19.96517 12.695308,-29.94792 -8.680667,-12.36979 -20.29069,-27.34375 -34.830729,-44.92187 -2.170248,-2.60416 -3.255209,-5.20833 -3.255209,-7.81249 0,-2.17025 0.976563,-4.6657 2.929688,-7.48699 5.642252,-7.8125 16.330403,-19.47689 32.0638,-34.99349 15.7334,-15.516599 25.98731,-23.274738 30.76173,-23.274738 2.82128,0 5.64225,1.084961 8.46353,3.255209 l 44.92187,34.830729 c 9.54851,-4.991208 19.42286,-9.114583 29.6224,-12.369792 3.47234,-29.513997 6.61882,-49.696289 9.4401,-60.546875 C 209.66764,9.0380858 213.57389,6 219.86718,6 h 72.26563 c 3.03809,0 5.69662,0.9222008 7.97526,2.7669275 2.27865,1.8447255 3.52637,4.1774085 3.74349,6.9986975 l 9.11458,59.895833 c 10.63379,3.472334 20.39942,7.486984 29.29688,12.044275 L 388.48698,52.875 c 1.95312,-1.953125 4.55729,-2.929688 7.8125,-2.929688 2.82129,0 5.53385,1.084961 8.13802,3.255209 27.99479,25.824546 45.89843,44.270837 53.71093,55.338549 1.51921,1.736 2.27865,4.12336 2.27865,7.16146 0,2.60416 -0.86816,5.09993 -2.60416,7.48697 -3.25521,4.55729 -8.78907,11.77311 -16.60157,21.64713 -7.8125,9.87403 -13.67187,17.52377 -17.57812,22.94922 5.64225,10.85059 10.09114,21.48438 13.34635,31.90104 l 59.57031,9.11459 c 2.82129,0.43391 5.09994,1.79036 6.83594,4.06901 1.736,2.27864 2.60417,4.82845 2.60417,7.64974 z" />
</svg>
